<svg xmlns="http://www.w3.org/2000/svg" width="512" height="512" viewBox="0 0 512 512">
 <defs>
  <radialGradient id="bg"><stop stop-color="#22384d"/><stop offset=".55" stop-color="#142637"/><stop offset="1" stop-color="#080f21"/></radialGradient>
  <radialGradient id="ball"><stop stop-color="#ffffff"/><stop offset=".28" stop-color="#e7fdfa"/><stop offset="1" stop-color="#82bebf"/></radialGradient>
  <linearGradient id="ring" x1="0" x2="1" y1="0" y2="1"><stop stop-color="#91e5db"/><stop offset=".56" stop-color="#b8afe4"/><stop offset="1" stop-color="#f5d8a4"/></linearGradient>
  <filter id="glow" x="-60%" y="-60%" width="220%" height="220%"><feGaussianBlur stdDeviation="9"/></filter>
 </defs>
 <rect width="512" height="512" rx="118" fill="url(#bg)"/>
 <ellipse cx="255" cy="256" rx="205" ry="207" fill="none" stroke="#95cbdf" stroke-opacity=".13" stroke-width="1.8"/>
 <path d="M92 388V216 Q92 102 256 102 Q420 102 420 216V388" fill="none" stroke="url(#ring)" stroke-opacity=".4" stroke-width="16" filter="url(#glow)"/>
 <path d="M92 388V216 Q92 102 256 102 Q420 102 420 216V388" fill="none" stroke="url(#ring)" stroke-opacity=".69" stroke-width="3.5"/>
 <circle cx="177" cy="263" r="52" fill="none" stroke="#8ad2d4" stroke-width="15" stroke-opacity=".3" filter="url(#glow)"/>
 <circle cx="335" cy="263" r="52" fill="none" stroke="#c9b8ec" stroke-width="15" stroke-opacity=".3" filter="url(#glow)"/>
 <circle cx="177" cy="263" r="43" fill="none" stroke="#9cdbd9" stroke-width="3" stroke-opacity=".85"/>
 <circle cx="335" cy="263" r="43" fill="none" stroke="#c9b8ec" stroke-width="3" stroke-opacity=".85"/>
 <path d="M256 170L261 198L286 205L261 212L256 240L251 212L226 205L251 198Z" fill="#fae7c9"/>
 <path d="M256 170L261 198L286 205L261 212L256 240L251 212L226 205L251 198Z" fill="#ffedda" filter="url(#glow)" opacity=".65"/>
 <circle cx="255" cy="320" r="19" fill="#a7ecdf" filter="url(#glow)"/>
 <circle cx="255" cy="320" r="16" fill="url(#ball)"/>
 <path d="M148 389L256 433L364 389" fill="none" stroke="#f1dbae" stroke-width="3" stroke-opacity=".72" stroke-linecap="round"/>
 <circle cx="126" cy="189" r="3" fill="#c4edec"/><circle cx="393" cy="195" r="3.5" fill="#e3d5fd"/>
</svg>